<?xml version="1.0" encoding="utf-8"?>
<!-- Generator: Adobe Illustrator 27.4.0, SVG Export Plug-In . SVG Version: 6.00 Build 0)  -->
<svg version="1.1" id="Layer_1" xmlns="http://www.w3.org/2000/svg" xmlns:xlink="http://www.w3.org/1999/xlink" x="0px" y="0px"
	 width="457.2000122px" height="457.1990051px" viewBox="0 0 457.2000122 457.1990051"
	 enable-background="new 0 0 457.2000122 457.1990051" xml:space="preserve">
<rect fill="#7017FF" width="457.2000122" height="457.1990051"/>
<g>
	<defs>
		<rect id="SVGID_1_" y="-0.0010071" width="457.2000122" height="457.2000122"/>
	</defs>
	<clipPath id="SVGID_00000133499332752528958840000015323609452234334399_">
		<use xlink:href="#SVGID_1_"  overflow="visible"/>
	</clipPath>
	<path clip-path="url(#SVGID_00000133499332752528958840000015323609452234334399_)" fill="#FFFFFF" d="M175.8300934,177.1209106
		c0,20.0840149-16.279007,36.3690033-36.3710022,36.3690033c-20.0820007,0-36.3689957-16.2849884-36.3689957-36.3690033
		c0-20.0859985,16.2869949-36.3670044,36.3689957-36.3670044
		C159.5450897,140.7539062,175.8300934,157.0349121,175.8300934,177.1209106"/>
	<path clip-path="url(#SVGID_00000133499332752528958840000015323609452234334399_)" fill="#FFFFFF" d="M235,280.0779114
		c0,20.0840149-16.2810059,36.3650208-36.3690033,36.3650208c-20.0839996,0-36.3629913-16.2810059-36.3629913-36.3650208
		c0-20.0820007,16.2789917-36.3690033,36.3629913-36.3690033C218.7189941,243.7089081,235,259.9959106,235,280.0779114"/>
	<path clip-path="url(#SVGID_00000133499332752528958840000015323609452234334399_)" fill="#FFFFFF" d="M354.1073914,280.0779114
		c0,20.0840149-16.2789917,36.3650208-36.3630066,36.3650208c-20.0899963,0-36.368988-16.2810059-36.368988-36.3650208
		c0-20.0820007,16.2789917-36.3690033,36.368988-36.3690033
		C337.8283997,243.7089081,354.1073914,259.9959106,354.1073914,280.0779114"/>
</g>
</svg>
