<svg width="41" height="59" viewBox="0 0 41 59" fill="none" xmlns="http://www.w3.org/2000/svg">
<path d="M38.5399 0.800147H2.46C1.10138 0.800147 0 1.90152 0 3.26014V55.7401C0 57.0987 1.10138 58.2 2.46 58.2H38.5399C39.8986 58.2 40.9999 57.0987 40.9999 55.7401V3.26014C40.9999 1.90152 39.8986 0.800147 38.5399 0.800147Z" fill="#003399"/>
<path d="M20.5001 8.18852L20.8281 9.18892H21.8859L21.0249 9.81211L21.3529 10.8207L20.5001 10.1975L19.6473 10.8207L19.9671 9.81211L19.1143 9.18892H20.1721L20.5001 8.18852Z" fill="#FFCC00"/>
<path d="M15.5713 9.50049L15.8911 10.5091H16.9489L16.0961 11.1241L16.4241 12.1327L15.5713 11.5095L14.7103 12.1327L15.0383 11.1323L14.1855 10.5091H15.2433L15.5713 9.50049Z" fill="#FFCC00"/>
<path d="M11.9639 13.1084L12.2919 14.1088H13.3497L12.4887 14.732L12.8167 15.7324L11.9639 15.1174L11.1111 15.7406L11.4309 14.732L10.5781 14.1088H11.6359L11.9639 13.1084Z" fill="#FFCC00"/>
<path d="M25.4196 9.51679L25.7476 10.5254L26.8054 10.5172L25.9526 11.1404L26.2806 12.149L25.4278 11.534L24.5668 12.149L24.8948 11.1486L24.042 10.5254H25.0998L25.4196 9.51679Z" fill="#FFCC00"/>
<path d="M30.2657 14.0349L29.4129 14.6581L29.7409 15.6585L28.8799 15.0435L28.0271 15.6585L28.3551 14.6581L27.4941 14.0349H28.5519L28.8799 13.0263L29.2079 14.0349H30.2657Z" fill="#FFCC00"/>
<path d="M31.6271 18.9792L30.7661 19.6024L31.0859 20.6028L30.2413 19.9796L29.3803 20.5946L29.7083 19.5942L28.8555 18.971H29.9133L30.2413 17.9706L30.5693 18.9792H31.6271Z" fill="#FFCC00"/>
<path d="M29.823 25.3586L28.962 24.7354L28.1092 25.3586L28.4372 24.35L27.5762 23.7268H28.634L28.962 22.7264L29.29 23.7268H30.3478L29.495 24.35L29.823 25.3586Z" fill="#FFCC00"/>
<path d="M19.7371 30.3118L20.0569 29.3032L19.2041 28.6882H20.2537L20.5817 27.6796L20.9097 28.68H21.9675L21.1147 29.3032L21.4427 30.3118L20.5899 29.6886L19.7371 30.3118Z" fill="#FFCC00"/>
<path d="M14.7924 29.008L15.1204 27.9994L14.2676 27.3844L15.3172 27.3762L15.6452 26.3758L15.9732 27.3762H17.031L16.1782 27.9994L16.5062 29.008L15.6452 28.3848L14.7924 29.008Z" fill="#FFCC00"/>
<path d="M26.2152 28.9836L25.3624 28.3604L24.5014 28.9754L24.8294 27.975L23.9766 27.3436L25.0344 27.3518L25.3624 26.3514L25.6904 27.3518L26.7482 27.36L25.8872 27.975L26.2152 28.9836Z" fill="#FFCC00"/>
<path d="M9.37305 19.0041L10.4308 18.9959L10.7588 17.9955L11.0868 18.9959H12.1446L11.2918 19.6191L11.6198 20.6195L10.7588 20.0045L9.90605 20.6277L10.234 19.6191L9.37305 19.0041Z" fill="#FFCC00"/>
<path d="M11.1844 25.3509L11.5124 24.3423L10.6514 23.7273L11.7092 23.7191L12.0372 22.7187L12.3652 23.7191H13.423L12.5702 24.3423L12.8982 25.3509L12.0372 24.7277L11.1844 25.3509Z" fill="#FFCC00"/>
<path d="M22.6406 18.1186V17.028C22.6406 15.8554 21.673 14.8878 20.5004 14.8878C19.3278 14.8878 18.3602 15.8554 18.3602 17.028V18.1186C17.8272 18.3072 17.4336 18.8238 17.4336 19.4388V22.2186C17.4336 22.9812 18.0568 23.6044 18.8194 23.6044H22.1568C22.9194 23.6044 23.5426 22.9812 23.5426 22.2186V19.4388C23.559 18.8238 23.1654 18.3236 22.6324 18.1186H22.6406ZM21.0498 22.0464H19.951L20.1396 20.8574C19.951 20.7344 19.8198 20.5212 19.8198 20.2834C19.8198 19.9144 20.1232 19.6028 20.5004 19.6028C20.8776 19.6028 21.181 19.9062 21.181 20.2834C21.181 20.5212 21.0498 20.7426 20.8612 20.8574L21.0498 22.0464ZM22.083 18.0366H18.926V17.0116C18.926 16.1424 19.6312 15.429 20.5086 15.429C21.386 15.429 22.0912 16.1342 22.0912 17.0116V18.0366H22.083Z" fill="white"/>
<path d="M0 37.7001V55.7401C0 57.1013 1.0988 58.2001 2.46 58.2001H38.5399C39.9011 58.2001 40.9999 57.1013 40.9999 55.7401V37.7001H0Z" fill="#231F20"/>
<path d="M11.7339 44.1701C11.5207 43.9651 11.2747 43.8175 10.9795 43.7109C10.6843 43.6125 10.3973 43.5551 10.1267 43.5551C9.47072 43.5551 8.94592 43.7437 8.55232 44.1127C8.15872 44.4899 7.96193 45.0475 7.96193 45.8019C7.96193 46.0397 7.99472 46.2857 8.06852 46.5399C8.14232 46.7941 8.26532 47.0319 8.42932 47.2451C8.60152 47.4583 8.82292 47.6305 9.10172 47.7699C9.38052 47.9093 9.71672 47.9749 10.1267 47.9749C10.3727 47.9749 10.6023 47.9421 10.8319 47.8847C11.0615 47.8273 11.3157 47.6961 11.5863 47.4911V46.4251H9.94632V45.1459H12.9147V48.1061C12.3161 48.9589 11.3813 49.3853 10.1103 49.3853C9.44612 49.3853 8.88032 49.2787 8.42112 49.0737C7.95372 48.8605 7.57652 48.5899 7.28133 48.2537C6.98613 47.9175 6.78112 47.5321 6.64992 47.1057C6.51872 46.6793 6.45312 46.2447 6.45312 45.8019C6.45312 45.3181 6.52693 44.8507 6.66633 44.4079C6.81393 43.9651 7.03533 43.5797 7.33873 43.2435C7.64212 42.9073 8.01933 42.6449 8.48672 42.4399C8.94592 42.2431 9.49532 42.1365 10.1267 42.1365C10.6023 42.1365 11.0451 42.2103 11.4715 42.3661C11.8979 42.5137 12.2997 42.7925 12.6933 43.2025L11.7421 44.1537L11.7339 44.1701Z" fill="white"/>
<path d="M16.9741 42.333C17.5645 42.333 18.0729 42.4232 18.5075 42.6118C18.9421 42.7922 19.2947 43.0464 19.5735 43.358C19.8523 43.6696 20.0573 44.0304 20.1967 44.4404C20.3361 44.8504 20.4017 45.285 20.4017 45.736C20.4017 46.187 20.3361 46.6216 20.2049 47.048C20.0737 47.4662 19.8687 47.8434 19.5981 48.1632C19.3193 48.4912 18.9667 48.7454 18.5321 48.9422C18.0975 49.139 17.5809 49.2292 16.9741 49.2292H14.1533V42.3412H16.9741V42.333ZM15.6621 47.8024H16.9741C17.3513 47.8024 17.6547 47.7368 17.9007 47.6138C18.1467 47.4908 18.3435 47.3268 18.4829 47.13C18.6305 46.9332 18.7289 46.7036 18.7863 46.4576C18.8437 46.2116 18.8765 45.9574 18.8765 45.7114C18.8765 45.4654 18.8437 45.2276 18.7781 44.9898C18.7125 44.752 18.6059 44.5388 18.4583 44.3502C18.3107 44.1616 18.1139 44.014 17.8761 43.8992C17.6301 43.7844 17.3349 43.727 16.9741 43.727H15.6621V47.8106V47.8024Z" fill="white"/>
<path d="M23.091 47.2694V49.221H21.5576V42.333H24.8048C25.2476 42.333 25.633 42.3986 25.961 42.5298C26.289 42.661 26.5678 42.8414 26.7892 43.0628C27.0106 43.2924 27.1746 43.5548 27.2812 43.85C27.3878 44.1452 27.4452 44.465 27.4452 44.8012C27.4452 45.1374 27.3878 45.4736 27.2812 45.7688C27.1664 46.064 27.0024 46.3264 26.781 46.5478C26.5596 46.7692 26.289 46.9414 25.961 47.0726C25.633 47.2038 25.2476 47.2694 24.813 47.2776H23.0992L23.091 47.2694ZM23.091 45.859H24.8048C25.1738 45.859 25.4444 45.7524 25.633 45.5474C25.8134 45.3424 25.9118 45.0964 25.9118 44.8258C25.9118 44.5552 25.8216 44.3092 25.633 44.096C25.4526 43.8828 25.1738 43.7844 24.8048 43.7844H23.091V45.859Z" fill="white"/>
<path d="M34.5469 49.221H32.8413L31.0783 46.9578H29.9631V49.221H28.4297V42.333H31.6933C32.1033 42.333 32.4723 42.3986 32.7921 42.5216C33.1119 42.6528 33.3743 42.825 33.5957 43.0382C33.8089 43.2514 33.9729 43.5056 34.0795 43.7844C34.1861 44.0632 34.2435 44.3502 34.2435 44.6536C34.2435 44.875 34.2189 45.0964 34.1779 45.3014C34.1369 45.5146 34.0549 45.7114 33.9401 45.8918C33.8253 46.0722 33.6613 46.2444 33.4563 46.4002C33.2513 46.556 32.9807 46.6954 32.6527 46.8102L34.5387 49.0898V49.2046L34.5469 49.221ZM29.9713 43.6532V45.6622H31.7261C31.9065 45.6622 32.0541 45.6294 32.1853 45.572C32.3165 45.5146 32.4149 45.4326 32.4969 45.3424C32.5789 45.244 32.6363 45.1456 32.6773 45.0308C32.7183 44.916 32.7347 44.8094 32.7347 44.6946C32.7347 44.5798 32.7101 44.4568 32.6691 44.3338C32.6281 44.2108 32.5625 44.096 32.4805 43.9976C32.3985 43.8992 32.2919 43.8172 32.1607 43.7516C32.0295 43.686 31.8737 43.6532 31.7015 43.6532H29.9713Z" fill="white"/>
<path d="M9.39751 53.2636C9.23351 53.4276 9.04491 53.5506 8.83171 53.6326C8.62671 53.7064 8.40531 53.7474 8.16751 53.7474C7.87231 53.7474 7.61811 53.6982 7.40491 53.608C7.19171 53.5178 7.01131 53.3866 6.87191 53.2308C6.73251 53.075 6.62592 52.8946 6.56032 52.6978C6.49472 52.501 6.46191 52.2878 6.46191 52.0746C6.46191 51.8614 6.49471 51.6482 6.56851 51.4432C6.64231 51.2382 6.74071 51.0578 6.88831 50.8938C7.02771 50.7298 7.20811 50.6068 7.42131 50.5084C7.63451 50.41 7.88871 50.3608 8.18391 50.3608C8.40531 50.3608 8.61851 50.4018 8.82351 50.4838C9.02851 50.5658 9.20891 50.6888 9.38111 50.8528L9.02851 51.189C8.91371 51.0742 8.78251 50.9922 8.63491 50.9348C8.48731 50.8774 8.33971 50.8528 8.19211 50.8528C7.98711 50.8528 7.80671 50.8856 7.65091 50.9594C7.49511 51.025 7.37211 51.1234 7.27371 51.2382C7.17531 51.353 7.10151 51.4842 7.06051 51.6236C7.01131 51.7712 6.98671 51.9188 6.98671 52.0664C6.98671 52.214 7.01131 52.3616 7.06051 52.501C7.10971 52.6404 7.17531 52.7716 7.27371 52.8782C7.37211 52.9848 7.49511 53.075 7.64271 53.1488C7.79031 53.2144 7.97071 53.2554 8.18391 53.2554C8.33151 53.2554 8.48731 53.2226 8.64311 53.1652C8.79891 53.1078 8.93011 53.0176 9.04491 52.9028L9.40571 53.2636H9.39751Z" fill="white"/>
<path d="M11.316 50.3607C11.5948 50.3607 11.8408 50.4099 12.0458 50.5001C12.2508 50.5985 12.423 50.7215 12.5624 50.8773C12.7018 51.0331 12.8002 51.2135 12.874 51.4185C12.9396 51.6235 12.9806 51.8367 12.9806 52.0581C12.9806 52.2795 12.9478 52.4927 12.874 52.6895C12.8084 52.8945 12.7018 53.0749 12.5706 53.2307C12.4312 53.3865 12.259 53.5095 12.054 53.5997C11.849 53.6899 11.603 53.7391 11.316 53.7391C11.029 53.7391 10.7912 53.6899 10.578 53.5997C10.373 53.5013 10.1926 53.3783 10.0614 53.2225C9.92197 53.0667 9.82357 52.8863 9.74977 52.6813C9.68417 52.4763 9.65137 52.2713 9.65137 52.0581C9.65137 51.8121 9.69237 51.5825 9.77437 51.3693C9.85637 51.1561 9.97117 50.9757 10.1188 50.8281C10.2664 50.6805 10.4468 50.5575 10.6518 50.4755C10.8568 50.3935 11.0782 50.3443 11.3242 50.3443L11.316 50.3607ZM10.1598 52.0745C10.1598 52.2221 10.1844 52.3615 10.2336 52.5009C10.2746 52.6403 10.3484 52.7715 10.4386 52.8863C10.5288 53.0011 10.6518 53.0913 10.7912 53.1651C10.9388 53.2307 11.111 53.2717 11.3078 53.2717C11.5046 53.2717 11.685 53.2389 11.8326 53.1733C11.9802 53.1077 12.095 53.0175 12.1934 52.9109C12.2836 52.8043 12.3574 52.6731 12.3984 52.5255C12.4394 52.3779 12.464 52.2303 12.464 52.0745C12.464 51.9187 12.4394 51.7793 12.3984 51.6317C12.3574 51.4841 12.2836 51.3529 12.1934 51.2381C12.1032 51.1233 11.9802 51.0249 11.8408 50.9511C11.6932 50.8773 11.521 50.8363 11.3242 50.8363C11.1356 50.8363 10.9716 50.8691 10.824 50.9265C10.6764 50.9921 10.5616 51.0741 10.4632 51.1889C10.3648 51.2955 10.291 51.4267 10.2418 51.5825C10.1926 51.7383 10.168 51.9023 10.168 52.0745H10.1598Z" fill="white"/>
<path d="M16.4241 51.1806L15.3171 52.7222H15.2023L14.1117 51.1806V53.6816H13.5869V50.4262H14.1937L15.2679 51.9514L16.3421 50.4262H16.9489V53.6816H16.4241V51.1806Z" fill="white"/>
<path d="M18.2855 52.6812V53.6816H17.7607V50.4262C18.0149 50.4262 18.2609 50.4262 18.5151 50.4262C18.7693 50.4262 19.0153 50.4262 19.2695 50.4262C19.5237 50.4262 19.7451 50.4836 19.9173 50.5902C20.0895 50.705 20.2207 50.8444 20.3109 51.0084C20.4011 51.1724 20.4421 51.361 20.4421 51.5496C20.4421 51.7382 20.4011 51.9268 20.3109 52.0908C20.2207 52.2548 20.0977 52.3942 19.9255 52.509C19.7533 52.6238 19.5401 52.673 19.2777 52.673H18.2937L18.2855 52.6812ZM18.2855 52.2056H19.2695C19.4089 52.2056 19.5319 52.1728 19.6303 52.1072C19.7287 52.0416 19.7943 51.9596 19.8435 51.8612C19.8927 51.7628 19.9091 51.6562 19.9091 51.5496C19.9091 51.443 19.8845 51.3364 19.8353 51.238C19.7861 51.1396 19.7123 51.0576 19.6221 50.992C19.5237 50.9264 19.4089 50.8936 19.2695 50.8936H18.2855V52.1974V52.2056Z" fill="white"/>
<path d="M21.5082 50.4183V53.1899H23.222V53.6737H20.9834V50.4183H21.5082Z" fill="white"/>
<path d="M23.7139 53.6816V50.4262H24.2305V53.6816H23.7139Z" fill="white"/>
<path d="M27.3062 52.9931H25.5432L25.2398 53.6737H24.6904L26.15 50.4183H26.7158L28.1754 53.6737H27.626L27.3144 52.9931H27.3062ZM26.4288 50.9677L25.74 52.5175H27.1176L26.4288 50.9677Z" fill="white"/>
<path d="M30.8734 52.7389V50.4183H31.3982V53.6737H31.0046L29.1596 51.3777V53.6737H28.6348V50.4183H29.0366L30.8816 52.7389H30.8734Z" fill="white"/>
<path d="M32.956 50.8936H31.8818V50.4262H34.5468V50.8936H33.4808V53.6816H32.956V50.8936Z" fill="white"/>
</svg>
